<svg id="plain" width="24" height="24" viewBox="0 0 24 24" fill="none" >
<g id="axisY" transform="translate(420, 20)" fill="none" font-size="10" font-family="sans-serif" text-anchor="end">
<path class="domain" stroke="currentColor" d="M-5,0.5H0.5V650.5H-5"/>
<g class="tick" opacity="1" transform="translate(0,0.5)">
<line stroke="currentColor" x2="-5"/>
<text fill="currentColor" x="-10" dy="0.32em">−80</text>
</g>
<g class="tick" opacity="1" transform="translate(0,41.125)">
<line stroke="currentColor" x2="-5"/>
<text fill="currentColor" x="-10" dy="0.32em">−70</text>
</g>
<g class="tick" opacity="1" transform="translate(0,81.75)">
<line stroke="currentColor" x2="-5"/>
<text fill="currentColor" x="-10" dy="0.32em">−60</text>
</g>
<g class="tick" opacity="1" transform="translate(0,122.375)">
<line stroke="currentColor" x2="-5"/>
<text fill="currentColor" x="-10" dy="0.32em">−50</text>
</g>
<g class="tick" opacity="1" transform="translate(0,163)">
<line stroke="currentColor" x2="-5"/>
<text fill="currentColor" x="-10" dy="0.32em">−40</text>
</g>
<g class="tick" opacity="1" transform="translate(0,203.625)">
<line stroke="currentColor" x2="-5"/>
<text fill="currentColor" x="-10" dy="0.32em">−30</text>
</g>
<g class="tick" opacity="1" transform="translate(0,244.25)">
<line stroke="currentColor" x2="-5"/>
<text fill="currentColor" x="-10" dy="0.32em">−20</text>
</g>
<g class="tick" opacity="1" transform="translate(0,284.875)">
<line stroke="currentColor" x2="-5"/>
<text fill="currentColor" x="-10" dy="0.32em">−10</text>
</g>
<g class="tick" opacity="1" transform="translate(0,325.5)">
<line stroke="currentColor" x2="-5"/>
<text fill="currentColor" x="-10" dy="0.32em">0</text>
</g>
<g class="tick" opacity="1" transform="translate(0,366.125)">
<line stroke="currentColor" x2="-5"/>
<text fill="currentColor" x="-10" dy="0.32em">10</text>
</g>
<g class="tick" opacity="1" transform="translate(0,406.75)">
<line stroke="currentColor" x2="-5"/>
<text fill="currentColor" x="-10" dy="0.32em">20</text>
</g>
<g class="tick" opacity="1" transform="translate(0,447.375)">
<line stroke="currentColor" x2="-5"/>
<text fill="currentColor" x="-10" dy="0.32em">30</text>
</g>
<g class="tick" opacity="1" transform="translate(0,488)">
<line stroke="currentColor" x2="-5"/>
<text fill="currentColor" x="-10" dy="0.32em">40</text>
</g>
<g class="tick" opacity="1" transform="translate(0,528.625)">
<line stroke="currentColor" x2="-5"/>
<text fill="currentColor" x="-10" dy="0.32em">50</text>
</g>
<g class="tick" opacity="1" transform="translate(0,569.25)">
<line stroke="currentColor" x2="-5"/>
<text fill="currentColor" x="-10" dy="0.32em">60</text>
</g>
<g class="tick" opacity="1" transform="translate(0,609.875)">
<line stroke="currentColor" x2="-5"/>
<text fill="currentColor" x="-10" dy="0.32em">70</text>
</g>
<g class="tick" opacity="1" transform="translate(0,650.5)">
<line stroke="currentColor" x2="-5"/>
<text fill="currentColor" x="-10" dy="0.32em">80</text>
</g>
</g>
<g id="axisX" transform="translate(20, 345)" fill="none" font-size="10" font-family="sans-serif" text-anchor="middle">
<path class="domain" stroke="currentColor" d="M0.5,5V0.5H800.5V5"/>
<g class="tick" opacity="1" transform="translate(0.5,0)">
<line stroke="currentColor" y2="5"/>
<text fill="currentColor" y="10" dy="0.71em">−100</text>
</g>
<g class="tick" opacity="1" transform="translate(40.5,0)">
<line stroke="currentColor" y2="5"/>
<text fill="currentColor" y="10" dy="0.71em">−90</text>
</g>
<g class="tick" opacity="1" transform="translate(80.5,0)">
<line stroke="currentColor" y2="5"/>
<text fill="currentColor" y="10" dy="0.71em">−80</text>
</g>
<g class="tick" opacity="1" transform="translate(120.5,0)">
<line stroke="currentColor" y2="5"/>
<text fill="currentColor" y="10" dy="0.71em">−70</text>
</g>
<g class="tick" opacity="1" transform="translate(160.5,0)">
<line stroke="currentColor" y2="5"/>
<text fill="currentColor" y="10" dy="0.71em">−60</text>
</g>
<g class="tick" opacity="1" transform="translate(200.5,0)">
<line stroke="currentColor" y2="5"/>
<text fill="currentColor" y="10" dy="0.71em">−50</text>
</g>
<g class="tick" opacity="1" transform="translate(240.5,0)">
<line stroke="currentColor" y2="5"/>
<text fill="currentColor" y="10" dy="0.71em">−40</text>
</g>
<g class="tick" opacity="1" transform="translate(280.5,0)">
<line stroke="currentColor" y2="5"/>
<text fill="currentColor" y="10" dy="0.71em">−30</text>
</g>
<g class="tick" opacity="1" transform="translate(320.5,0)">
<line stroke="currentColor" y2="5"/>
<text fill="currentColor" y="10" dy="0.71em">−20</text>
</g>
<g class="tick" opacity="1" transform="translate(360.5,0)">
<line stroke="currentColor" y2="5"/>
<text fill="currentColor" y="10" dy="0.71em">−10</text>
</g>
<g class="tick" opacity="1" transform="translate(400.5,0)">
<line stroke="currentColor" y2="5"/>
<text fill="currentColor" y="10" dy="0.71em">0</text>
</g>
<g class="tick" opacity="1" transform="translate(440.50000000000006,0)">
<line stroke="currentColor" y2="5"/>
<text fill="currentColor" y="10" dy="0.71em">10</text>
</g>
<g class="tick" opacity="1" transform="translate(480.5,0)">
<line stroke="currentColor" y2="5"/>
<text fill="currentColor" y="10" dy="0.71em">20</text>
</g>
<g class="tick" opacity="1" transform="translate(520.5,0)">
<line stroke="currentColor" y2="5"/>
<text fill="currentColor" y="10" dy="0.71em">30</text>
</g>
<g class="tick" opacity="1" transform="translate(560.5,0)">
<line stroke="currentColor" y2="5"/>
<text fill="currentColor" y="10" dy="0.71em">40</text>
</g>
<g class="tick" opacity="1" transform="translate(600.5,0)">
<line stroke="currentColor" y2="5"/>
<text fill="currentColor" y="10" dy="0.71em">50</text>
</g>
<g class="tick" opacity="1" transform="translate(640.5,0)">
<line stroke="currentColor" y2="5"/>
<text fill="currentColor" y="10" dy="0.71em">60</text>
</g>
<g class="tick" opacity="1" transform="translate(680.5,0)">
<line stroke="currentColor" y2="5"/>
<text fill="currentColor" y="10" dy="0.71em">70</text>
</g>
<g class="tick" opacity="1" transform="translate(720.5,0)">
<line stroke="currentColor" y2="5"/>
<text fill="currentColor" y="10" dy="0.71em">80</text>
</g>
<g class="tick" opacity="1" transform="translate(760.5,0)">
<line stroke="currentColor" y2="5"/>
<text fill="currentColor" y="10" dy="0.71em">90</text>
</g>
<g class="tick" opacity="1" transform="translate(800.5,0)">
<line stroke="currentColor" y2="5"/>
<text fill="currentColor" y="10" dy="0.71em">100</text>
</g>
</g>
</svg>